#!OML:ASF H:\Terrain\Walking\May29\JustinRory\Justin.ASF
:FULLY-SPECIFIED
:DEGREES
195
root 16.2453 16.8156 2.05008 -326.176 -73.6111 -22.5609
lowerback 16.2732 -0.629005 -0.754712
upperback 4.44926 -0.973161 3.58637
thorax -4.29836 -0.571707 4.42763
lowerneck 1.6277 -18.6469 -19.2695
upperneck 7.24978 -27.2394 20.7912
head 7.53945 -13.3744 6.73405
rclavicle 2.59414e-014 -3.03147e-014
rhumerus -59.0208 -77.705 28.9782
rradius 30.494
rwrist -47.5671
rhand 27.2543 -8.94922
rfingers 7.12502
rthumb 51.2223 -29.5057
lclavicle 2.59414e-014 -3.03147e-014
lhumerus -47.4842 25.4875 52.2763
lradius 27.7111
lwrist -8.89501
lhand -3.01661 31.4707
lfingers 7.12502
lthumb 22.698 60.1557
rfemur -33.8137 -10.4955 15.2439
rtibia 51.69
rfoot -21.7068 11.217
rtoes -26.029
lfemur -21.5569 5.29975 -25.8243
ltibia 52.0921
lfoot -23.3698 -11.0861
ltoes 6.92002
196
root 16.2001 16.8316 2.10307 -326.866 -73.5656 -21.9229
lowerback 16.459 -0.730833 -0.405567
upperback 4.66145 -1.07956 3.17645
thorax -4.17959 -0.630787 3.81155
lowerneck 0.266358 -18.7751 -17.1274
upperneck 7.14601 -27.01 19.5497
head 7.18521 -13.1741 6.04435
rclavicle 7.35503e-015 2.82274e-014
rhumerus -62.5703 -77.9559 31.7525
rradius 30.496
rwrist -46.507
rhand 33.1693 -10.5069
rfingers 7.12502
rthumb 56.5315 -27.4767
lclavicle 7.35503e-015 2.82274e-014
lhumerus -46.9707 25.2649 51.9405
lradius 27.5933
lwrist -9.21181
lhand -2.59119 31.4143
lfingers 7.12502
lthumb 23.1063 60.0488
rfemur -33.626 -9.19216 15.2044
rtibia 50.0596
rfoot -21.8125 10.6585
rtoes -24.1591
lfemur -21.7857 5.70407 -25.7748
ltibia 52.8901
lfoot -21.9552 -13.047
ltoes 8.25239
197
root 16.1493 16.839 2.14181 -329.776 -73.7947 -18.9476
lowerback 16.7001 -0.773882 -1.33438
upperback 4.78174 -1.30025 2.96491
thorax -4.1494 -0.738127 4.16469
lowerneck 0.345171 -18.8591 -17.6085
upperneck 7.18157 -27.2224 20.0611
head 7.37415 -13.2742 6.20808
rclavicle 1.13307e-014 -1.59028e-015
rhumerus -62.943 -78.1924 31.8527
rradius 30.5176
rwrist -46.1652
rhand 38.8491 -12.9563
rfingers 7.12502
rthumb 61.4344 -25.1371
lclavicle 1.13307e-014 -1.59028e-015
lhumerus -46.9036 25.3759 51.8388
lradius 27.4528
lwrist -9.55823
lhand -2.57294 31.3352
lfingers 7.12502
lthumb 23.1238 59.9675
rfemur -33.4309 -7.84725 14.2859
rtibia 48.505
rfoot -22.5267 8.80551
rtoes -24.6754
lfemur -22.0854 5.95988 -26.455
ltibia 53.7494
lfoot -20.0139 -15.1289
ltoes 10.1587
198
root 16.1019 16.8388 2.18332 -331.899 -73.7792 -16.7473
lowerback 17.0067 -0.841686 -2.02905
upperback 4.8581 -1.51286 2.88804
thorax -4.19728 -0.841855 4.53112
lowerneck 1.01803 -18.7858 -18.7748
upperneck 6.76052 -27.302 21.1382
head 7.48679 -13.3649 6.71336
rclavicle 9.93923e-017 -1.92821e-014
rhumerus -61.9605 -78.1467 30.5816
rradius 30.7323
rwrist -46.698
rhand 44.5251 -16.4038
rfingers 7.12502
rthumb 66.0229 -21.7801
lclavicle 9.93923e-017 -1.92821e-014
lhumerus -46.8885 25.2367 51.943
lradius 27.5473
lwrist -9.62702
lhand -2.45817 31.3761
lfingers 7.12502
lthumb 23.2339 59.9945
rfemur -33.2704 -6.70055 13.6032
rtibia 47.1726
rfoot -22.8575 5.75676
rtoes -25.8056
lfemur -22.4824 6.17561 -26.7845
ltibia 54.6971
lfoot -17.8085 -16.9674
ltoes 10.9614
199
root 16.0522 16.8403 2.23431 -332.916 -73.5288 -15.7091
lowerback 17.2628 -0.900076 -2.1457
upperback 4.93812 -1.61566 2.91407
thorax -4.23439 -0.894889 4.65423
lowerneck 1.48853 -18.7063 -19.2284
upperneck 6.1571 -27.2175 21.637
head 7.34658 -13.3725 6.98959
rclavicle 5.1684e-015 -3.57812e-015
rhumerus -62.4452 -77.9768 30.9933
rradius 30.8434
rwrist -46.8581
rhand 50.5831 -20.1612
rfingers 7.12502
rthumb 70.3286 -14.8183
lclavicle 5.1684e-015 -3.57812e-015
lhumerus -46.7348 24.9788 52.1942
lradius 27.7662
lwrist -9.91821
lhand -2.30735 31.4971
lfingers 7.12502
lthumb 23.3786 60.0972
rfemur -32.918 -5.60164 13.0617
rtibia 46.2037
rfoot -22.3806 3.55495
rtoes -23.1833
lfemur -22.9912 6.66986 -26.6763
ltibia 55.7952
lfoot -15.8215 -19.0805
ltoes 10.2842
200
root 16.0036 16.8252 2.2809 -334.113 -73.3759 -14.586
lowerback 17.6516 -0.920088 -2.26994
upperback 4.97238 -1.67299 2.86584
thorax -4.39649 -0.92088 4.7
lowerneck 1.64294 -18.6286 -19.2228
upperneck 5.90265 -27.064 21.5714
head 7.19643 -13.3184 7.02319
rclavicle 6.26172e-015 6.95746e-015
rhumerus -63.1973 -77.7076 31.7041
rradius 30.98
rwrist -46.9714
rhand 56.0417 -24.2724
rfingers 7.12502
rthumb 73.2965 -4.89264
lclavicle 6.26172e-015 6.95746e-015
lhumerus -46.5207 24.536 52.4107
lradius 27.8641
lwrist -10.1033
lhand -2.52399 31.5062
lfingers 7.12502
lthumb 23.1707 60.1326
rfemur -32.4271 -4.591 12.4383
rtibia 45.6435
rfoot -21.7706 2.42199
rtoes -21.5272
lfemur -23.5007 7.24809 -26.623
ltibia 57.0504
lfoot -13.7794 -21.0648
ltoes 7.97143
